<svg id="_Layer_1" data-name="#Layer 1" xmlns="http://www.w3.org/2000/svg" viewBox="0 0 432.43 88.65"><defs><style>.cls-1{fill:#d96e43;}.cls-1,.cls-2,.cls-3,.cls-4,.cls-5,.cls-6{fill-rule:evenodd;}.cls-2,.cls-7{fill:#83bb5d;}.cls-3{fill:#fff687;}.cls-4{fill:#f2c56c;}.cls-5{fill:#bfd454;}.cls-6{fill:#f7de5b;}</style></defs><title>логотип для пп</title><path class="cls-1" d="M117.33,392.12a19.83,19.83,0,0,1,.75,37,36.88,36.88,0,0,1-23.29-30.37A19.86,19.86,0,0,1,117.33,392.12Z" transform="translate(-78.79 -354.01)"/><path class="cls-2" d="M110.2,424.92a15.29,15.29,0,0,1-.83,3.51,15.77,15.77,0,1,1-12.54-21A37,37,0,0,0,110.2,424.92Z" transform="translate(-78.79 -354.01)"/><path class="cls-3" d="M110.2,424.92a37,37,0,0,1-13.37-17.46,15.56,15.56,0,0,1,3.09.78A15.83,15.83,0,0,1,110.2,424.92Z" transform="translate(-78.79 -354.01)"/><path class="cls-4" d="M144,360.07a36.9,36.9,0,1,1-25.14,69.38l-.82-.32a19.83,19.83,0,1,0-23.29-30.37A36.9,36.9,0,0,1,144,360.07Z" transform="translate(-78.79 -354.01)"/><path class="cls-5" d="M110.2,424.92a15.5,15.5,0,0,1-1.73,5.54A19.84,19.84,0,0,1,91,407.73h0a15.83,15.83,0,0,1,5.87-.26A37,37,0,0,0,110.2,424.92Z" transform="translate(-78.79 -354.01)"/><path class="cls-6" d="M118.08,429.13a19.78,19.78,0,0,1-9.63,1.37,16.06,16.06,0,0,0,.92-2.07,15.29,15.29,0,0,0,.83-3.51,36.9,36.9,0,0,0,7.88,4.21ZM96.83,407.46a15.78,15.78,0,0,0-5.86.26,20.53,20.53,0,0,1,1-3.7,20,20,0,0,1,2.87-5.26A37.35,37.35,0,0,0,96.83,407.46Z" transform="translate(-78.79 -354.01)"/><rect class="cls-7" x="163.77" y="18.98" width="9.6" height="50.69" rx="3.82"/><path class="cls-7" d="M209.21,373a25.38,25.38,0,0,0-25.34,25.34v2.35h0v38.15a3.83,3.83,0,0,0,3.82,3.82h2a3.83,3.83,0,0,0,3.82-3.82V418.23A25.36,25.36,0,1,0,209.21,373Zm0,41.21h0a15.81,15.81,0,1,1,15.88-15.87A15.91,15.91,0,0,1,209.21,414.2Z" transform="translate(-78.79 -354.01)"/><path class="cls-7" d="M353.94,373a25.4,25.4,0,0,0-25.37,25.34v2.35h0v38.15a3.83,3.83,0,0,0,3.82,3.82h2a3.83,3.83,0,0,0,3.82-3.82V418.23A25.36,25.36,0,1,0,353.94,373Zm0,41.21h0a15.81,15.81,0,1,1,15.87-15.87A15.91,15.91,0,0,1,353.94,414.2Z" transform="translate(-78.79 -354.01)"/><path class="cls-7" d="M385,398.33a25.39,25.39,0,0,0,41.1,19.9v1.7a3.83,3.83,0,0,0,3.82,3.83h2a3.83,3.83,0,0,0,3.82-3.83V400.69h0v-2.35a25.35,25.35,0,0,0-50.69,0Zm9.47,0h0a15.88,15.88,0,1,1,15.87,15.87A15.81,15.81,0,0,1,394.45,398.33Z" transform="translate(-78.79 -354.01)"/><path class="cls-7" d="M310.41,357.83a3.82,3.82,0,0,1,3.82-3.8h1.95a3.82,3.82,0,0,1,3.82,3.8v62a3.82,3.82,0,0,1-3.82,3.81h-1.95a3.82,3.82,0,0,1-3.82-3.81Z" transform="translate(-78.79 -354.01)"/><path class="cls-7" d="M462.48,373.62a25.34,25.34,0,0,0-19.72,24.71v19h0v2.52a3.83,3.83,0,0,0,3.82,3.82h2a3.83,3.83,0,0,0,3.82-3.82V398.33A15.87,15.87,0,0,1,463.86,383c4.21-.93,4.25-4.12,4.25-4.12v-2S468.31,372.32,462.48,373.62Z" transform="translate(-78.79 -354.01)"/><path class="cls-2" d="M250.46,354.77a6.68,6.68,0,1,1-9,2.86A6.68,6.68,0,0,1,250.46,354.77Z" transform="translate(-78.79 -354.01)"/><path class="cls-7" d="M285,385.82l-1.24,1.61a3,3,0,0,1-2.29,1.25h-.06a3,3,0,0,1-2.29-1.25l-1.24-1.61-8.6-11.37a3.84,3.84,0,0,0-5.36-.69L262.33,375a3.83,3.83,0,0,0-.7,5.36l11.11,14.6h0l.29.39a5.29,5.29,0,0,1,0,6.08l-.29.39h0l-12,14.57a3.84,3.84,0,0,0,.69,5.36l1.55,1.2a3.83,3.83,0,0,0,5.36-.7l8.53-10.2h0l1.66-2.19.53-.69a3,3,0,0,1,2.28-1.26h.06a3,3,0,0,1,2.27,1.26l.53.69,1.67,2.19h0l8.53,10.2a3.82,3.82,0,0,0,5.35.7l1.55-1.2a3.83,3.83,0,0,0,.7-5.36l-12-14.57h0l-.3-.39a5.33,5.33,0,0,1,0-6.08l.3-.39h0l11.1-14.6a3.83,3.83,0,0,0-.69-5.36l-1.55-1.19a3.84,3.84,0,0,0-5.36.69Z" transform="translate(-78.79 -354.01)"/><path class="cls-7" d="M480.07,354h-1.95a3.82,3.82,0,0,0-3.82,3.8v62a3.83,3.83,0,0,0,3.07,3.74,3.68,3.68,0,0,0,.82.09H480a3.67,3.67,0,0,0,1.49-.3,3.83,3.83,0,0,0,2.38-3.53v-62A3.82,3.82,0,0,0,480.07,354Z" transform="translate(-78.79 -354.01)"/><path class="cls-7" d="M498.1,401.24a4.21,4.21,0,0,1-.58-1,5.32,5.32,0,0,1,.63-4.9l.3-.39h0l11.1-14.6a3.84,3.84,0,0,0-.69-5.36l-1.55-1.19a3.84,3.84,0,0,0-5.36.69c-5.24,6.93-10.53,13.81-15.8,20.72a5.33,5.33,0,0,0,0,6.08l16.67,20.95a3.83,3.83,0,0,0,5.36.7l1.55-1.2a3.83,3.83,0,0,0,.69-5.36Z" transform="translate(-78.79 -354.01)"/></svg>